<?xml version="1.0" encoding="UTF-8"?>
<svg width="640" height="360" viewBox="0 0 640 360" fill="none" xmlns="http://www.w3.org/2000/svg" role="img" aria-label="Brew">
  <defs>
    <linearGradient id="bg" x1="0" y1="0" x2="1" y2="1">
      <stop offset="0%" stop-color="#1a1a1a"/>
      <stop offset="100%" stop-color="#0c0c0c"/>
    </linearGradient>
    <radialGradient id="glow" cx="0" cy="0" r="1" gradientUnits="userSpaceOnUse" gradientTransform="translate(200 120) rotate(20) scale(260 180)">
      <stop stop-color="#4e2e1f" stop-opacity="0.85"/>
      <stop offset="1" stop-color="#000" stop-opacity="0"/>
    </radialGradient>
    <linearGradient id="beanGrad" x1="0" y1="0" x2="1" y2="1">
      <stop offset="0%" stop-color="#6b3d2a"/>
      <stop offset="60%" stop-color="#8a4d35"/>
      <stop offset="100%" stop-color="#3b2218"/>
    </linearGradient>
  </defs>
  <rect width="640" height="360" rx="16" fill="url(#bg)"/>
  <rect x="0" y="0" width="640" height="360" fill="url(#glow)"/>
  <!-- cup plate -->
  <ellipse cx="430" cy="260" rx="110" ry="26" fill="#0f0f0f" stroke="#2a2a2a" stroke-width="2"/>
  <!-- cup body -->
  <g filter="url(#f1)">
    <path d="M360 130h120c10 0 18 8 18 18v62c0 32-26 58-58 58h-40c-32 0-58-26-58-58v-62c0-10 8-18 18-18z" fill="#141414" stroke="#333" stroke-width="2"/>
  </g>
  <!-- handle -->
  <path d="M510 170c26 0 46 18 46 42s-20 42-46 42" fill="none" stroke="#333" stroke-width="10" stroke-linecap="round"/>
  <!-- coffee surface -->
  <ellipse cx="420" cy="160" rx="54" ry="18" fill="#201714"/>
  <ellipse cx="420" cy="160" rx="52" ry="16" fill="#2b1a14"/>
  <!-- steam -->
  <path d="M385 110c-8-18 12-24 4-40" stroke="#b58a76" stroke-opacity="0.6" stroke-width="2" fill="none" stroke-linecap="round"/>
  <path d="M405 106c-8-18 12-24 4-40" stroke="#b58a76" stroke-opacity="0.6" stroke-width="2" fill="none" stroke-linecap="round"/>
  <path d="M425 110c-8-18 12-24 4-40" stroke="#b58a76" stroke-opacity="0.6" stroke-width="2" fill="none" stroke-linecap="round"/>
  <!-- beans -->
  <g transform="translate(160,180) rotate(-20)">
    <ellipse cx="0" cy="0" rx="34" ry="22" fill="url(#beanGrad)"/>
    <path d="M-10 -10c6 10 6 20 0 30" stroke="#2b170f" stroke-width="3" stroke-linecap="round"/>
  </g>
  <g transform="translate(220,210) rotate(12)">
    <ellipse cx="0" cy="0" rx="28" ry="18" fill="url(#beanGrad)"/>
    <path d="M-8 -8c5 8 5 16 0 24" stroke="#2b170f" stroke-width="3" stroke-linecap="round"/>
  </g>
  <!-- title plate -->
  <g opacity="0.9">
    <rect x="20" y="20" rx="6" width="92" height="28" fill="#000" fill-opacity="0.55" stroke="rgba(255,255,255,0.25)"/>
    <text x="32" y="40" fill="#fff" font-family="'Segoe UI', Arial, sans-serif" font-size="16" font-weight="700">Brew</text>
  </g>
  <defs>
    <filter id="f1" x="348" y="118" width="176" height="160" color-interpolation-filters="sRGB">
      <feDropShadow dx="0" dy="6" stdDeviation="10" flood-color="#000" flood-opacity="0.35"/>
    </filter>
  </defs>
</svg>
